<mxfile host="app.diagrams.net" modified="2021-04-08T15:28:35.851Z" agent="5.0 (Macintosh; Intel Mac OS X 10_15_7) AppleWebKit/537.36 (KHTML, like Gecko) Chrome/86.0.4240.193 Safari/537.36" etag="y-HKJ47ljw_Ckprvqbw8" version="14.5.8" type="github">
  <diagram id="hXI3qIKj05tj3Yqp8QCT" name="Page-1">
    <mxGraphModel dx="946" dy="536" grid="1" gridSize="10" guides="1" tooltips="1" connect="1" arrows="1" fold="1" page="1" pageScale="1" pageWidth="827" pageHeight="1169" math="0" shadow="0">
      <root>
        <mxCell id="0" />
        <mxCell id="1" parent="0" />
        <mxCell id="0qDnD8HY44GYgB652-wY-12" style="edgeStyle=orthogonalEdgeStyle;rounded=0;orthogonalLoop=1;jettySize=auto;html=1;exitX=0.25;exitY=1;exitDx=0;exitDy=0;entryX=0.25;entryY=0;entryDx=0;entryDy=0;" edge="1" parent="1" source="0qDnD8HY44GYgB652-wY-1" target="0qDnD8HY44GYgB652-wY-2">
          <mxGeometry relative="1" as="geometry" />
        </mxCell>
        <mxCell id="0qDnD8HY44GYgB652-wY-1" value="&lt;pre&gt;SqlSession&lt;/pre&gt;" style="rounded=1;whiteSpace=wrap;html=1;fillColor=#ffe6cc;strokeColor=#d79b00;" vertex="1" parent="1">
          <mxGeometry x="160" y="120" width="120" height="60" as="geometry" />
        </mxCell>
        <mxCell id="0qDnD8HY44GYgB652-wY-13" style="edgeStyle=orthogonalEdgeStyle;rounded=0;orthogonalLoop=1;jettySize=auto;html=1;exitX=0.25;exitY=1;exitDx=0;exitDy=0;entryX=0.313;entryY=-0.05;entryDx=0;entryDy=0;entryPerimeter=0;" edge="1" parent="1" source="0qDnD8HY44GYgB652-wY-2" target="0qDnD8HY44GYgB652-wY-3">
          <mxGeometry relative="1" as="geometry" />
        </mxCell>
        <mxCell id="0qDnD8HY44GYgB652-wY-15" style="edgeStyle=orthogonalEdgeStyle;rounded=0;orthogonalLoop=1;jettySize=auto;html=1;exitX=0.75;exitY=0;exitDx=0;exitDy=0;entryX=0.75;entryY=1;entryDx=0;entryDy=0;" edge="1" parent="1" source="0qDnD8HY44GYgB652-wY-2" target="0qDnD8HY44GYgB652-wY-1">
          <mxGeometry relative="1" as="geometry" />
        </mxCell>
        <mxCell id="0qDnD8HY44GYgB652-wY-16" style="edgeStyle=orthogonalEdgeStyle;rounded=0;orthogonalLoop=1;jettySize=auto;html=1;exitX=0.75;exitY=1;exitDx=0;exitDy=0;entryX=0.688;entryY=-0.033;entryDx=0;entryDy=0;entryPerimeter=0;startArrow=classic;startFill=1;endArrow=none;endFill=0;" edge="1" parent="1" source="0qDnD8HY44GYgB652-wY-2" target="0qDnD8HY44GYgB652-wY-3">
          <mxGeometry relative="1" as="geometry" />
        </mxCell>
        <mxCell id="0qDnD8HY44GYgB652-wY-2" value="&lt;pre&gt;&lt;pre&gt;Executor&lt;/pre&gt;&lt;/pre&gt;" style="rounded=1;whiteSpace=wrap;html=1;fillColor=#f5f5f5;strokeColor=#666666;fontColor=#333333;" vertex="1" parent="1">
          <mxGeometry x="160" y="230" width="120" height="60" as="geometry" />
        </mxCell>
        <mxCell id="0qDnD8HY44GYgB652-wY-11" style="edgeStyle=orthogonalEdgeStyle;rounded=0;orthogonalLoop=1;jettySize=auto;html=1;exitX=0.25;exitY=1;exitDx=0;exitDy=0;entryX=0.5;entryY=0;entryDx=0;entryDy=0;" edge="1" parent="1" source="0qDnD8HY44GYgB652-wY-3" target="0qDnD8HY44GYgB652-wY-4">
          <mxGeometry relative="1" as="geometry" />
        </mxCell>
        <mxCell id="0qDnD8HY44GYgB652-wY-3" value="&lt;pre&gt;&lt;pre&gt;&lt;pre&gt;StatementHandler&lt;/pre&gt;&lt;/pre&gt;&lt;/pre&gt;" style="rounded=1;whiteSpace=wrap;html=1;fillColor=#dae8fc;strokeColor=#6c8ebf;" vertex="1" parent="1">
          <mxGeometry x="140" y="340" width="160" height="60" as="geometry" />
        </mxCell>
        <mxCell id="0qDnD8HY44GYgB652-wY-4" value="&lt;pre&gt;&lt;pre&gt;&lt;pre&gt;&lt;pre&gt;ParameterHandler&lt;/pre&gt;&lt;/pre&gt;&lt;/pre&gt;&lt;/pre&gt;" style="rounded=1;whiteSpace=wrap;html=1;fillColor=#d5e8d4;strokeColor=#82b366;" vertex="1" parent="1">
          <mxGeometry x="40" y="460" width="160" height="60" as="geometry" />
        </mxCell>
        <mxCell id="0qDnD8HY44GYgB652-wY-28" style="edgeStyle=orthogonalEdgeStyle;rounded=0;orthogonalLoop=1;jettySize=auto;html=1;exitX=0.5;exitY=0;exitDx=0;exitDy=0;entryX=0.75;entryY=1;entryDx=0;entryDy=0;startArrow=none;startFill=0;endArrow=classic;endFill=1;" edge="1" parent="1" source="0qDnD8HY44GYgB652-wY-5" target="0qDnD8HY44GYgB652-wY-3">
          <mxGeometry relative="1" as="geometry" />
        </mxCell>
        <mxCell id="0qDnD8HY44GYgB652-wY-5" value="&lt;pre&gt;&lt;pre&gt;&lt;pre&gt;&lt;pre&gt;&lt;pre&gt;ResultSetHandler&lt;/pre&gt;&lt;/pre&gt;&lt;/pre&gt;&lt;/pre&gt;&lt;/pre&gt;" style="rounded=1;whiteSpace=wrap;html=1;fillColor=#d5e8d4;strokeColor=#82b366;" vertex="1" parent="1">
          <mxGeometry x="253" y="460" width="160" height="60" as="geometry" />
        </mxCell>
        <mxCell id="0qDnD8HY44GYgB652-wY-19" style="edgeStyle=orthogonalEdgeStyle;rounded=0;orthogonalLoop=1;jettySize=auto;html=1;exitX=0.25;exitY=1;exitDx=0;exitDy=0;entryX=0.25;entryY=0;entryDx=0;entryDy=0;startArrow=classic;startFill=1;endArrow=none;endFill=0;" edge="1" parent="1" source="0qDnD8HY44GYgB652-wY-6" target="0qDnD8HY44GYgB652-wY-7">
          <mxGeometry relative="1" as="geometry" />
        </mxCell>
        <mxCell id="0qDnD8HY44GYgB652-wY-29" style="edgeStyle=orthogonalEdgeStyle;rounded=0;orthogonalLoop=1;jettySize=auto;html=1;exitX=0.75;exitY=0;exitDx=0;exitDy=0;entryX=0.25;entryY=1;entryDx=0;entryDy=0;startArrow=none;startFill=0;endArrow=classic;endFill=1;" edge="1" parent="1" source="0qDnD8HY44GYgB652-wY-6" target="0qDnD8HY44GYgB652-wY-5">
          <mxGeometry relative="1" as="geometry" />
        </mxCell>
        <mxCell id="0qDnD8HY44GYgB652-wY-33" style="edgeStyle=orthogonalEdgeStyle;rounded=0;orthogonalLoop=1;jettySize=auto;html=1;exitX=0.25;exitY=0;exitDx=0;exitDy=0;entryX=0.8;entryY=1.05;entryDx=0;entryDy=0;entryPerimeter=0;startArrow=classic;startFill=1;endArrow=none;endFill=0;" edge="1" parent="1" source="0qDnD8HY44GYgB652-wY-6" target="0qDnD8HY44GYgB652-wY-4">
          <mxGeometry relative="1" as="geometry" />
        </mxCell>
        <mxCell id="0qDnD8HY44GYgB652-wY-6" value="&lt;pre&gt;&lt;pre&gt;&lt;pre&gt;&lt;pre&gt;TypeHandler&lt;/pre&gt;&lt;/pre&gt;&lt;/pre&gt;&lt;/pre&gt;" style="rounded=1;whiteSpace=wrap;html=1;fillColor=#dae8fc;strokeColor=#6c8ebf;" vertex="1" parent="1">
          <mxGeometry x="105.5" y="585" width="250" height="55.5" as="geometry" />
        </mxCell>
        <mxCell id="0qDnD8HY44GYgB652-wY-36" style="edgeStyle=orthogonalEdgeStyle;rounded=0;orthogonalLoop=1;jettySize=auto;html=1;exitX=0.75;exitY=0;exitDx=0;exitDy=0;entryX=0.5;entryY=1;entryDx=0;entryDy=0;startArrow=none;startFill=0;endArrow=classic;endFill=1;" edge="1" parent="1" source="0qDnD8HY44GYgB652-wY-7" target="0qDnD8HY44GYgB652-wY-8">
          <mxGeometry relative="1" as="geometry" />
        </mxCell>
        <mxCell id="0qDnD8HY44GYgB652-wY-7" value="&lt;pre&gt;&lt;pre&gt;&lt;pre&gt;&lt;pre&gt;&lt;pre&gt;Statement&lt;/pre&gt;&lt;/pre&gt;&lt;/pre&gt;&lt;/pre&gt;&lt;/pre&gt;" style="rounded=1;whiteSpace=wrap;html=1;fillColor=#ffe6cc;strokeColor=#d79b00;" vertex="1" parent="1">
          <mxGeometry x="107" y="780" width="245" height="60" as="geometry" />
        </mxCell>
        <mxCell id="0qDnD8HY44GYgB652-wY-37" style="edgeStyle=orthogonalEdgeStyle;rounded=0;orthogonalLoop=1;jettySize=auto;html=1;entryX=0.75;entryY=1;entryDx=0;entryDy=0;startArrow=none;startFill=0;endArrow=classic;endFill=1;" edge="1" parent="1">
          <mxGeometry relative="1" as="geometry">
            <mxPoint x="288" y="680" as="sourcePoint" />
            <mxPoint x="290" y="640.5" as="targetPoint" />
          </mxGeometry>
        </mxCell>
        <mxCell id="0qDnD8HY44GYgB652-wY-8" value="&lt;pre&gt;&lt;pre&gt;&lt;pre&gt;&lt;pre&gt;&lt;pre&gt;&lt;pre&gt;ResultSet&lt;/pre&gt;&lt;/pre&gt;&lt;/pre&gt;&lt;/pre&gt;&lt;/pre&gt;&lt;/pre&gt;" style="rounded=1;whiteSpace=wrap;html=1;fillColor=#f5f5f5;strokeColor=#666666;fontColor=#333333;" vertex="1" parent="1">
          <mxGeometry x="211" y="680" width="160" height="60" as="geometry" />
        </mxCell>
      </root>
    </mxGraphModel>
  </diagram>
</mxfile>
